<svg width="84" height="36" viewBox="0 0 84 36" fill="none" xmlns="http://www.w3.org/2000/svg">
<g clip-path="url(#clip0_15_237)">
<path d="M73.9112 17.0816L73.8741 17.1188C74.1343 16.4126 74.6546 16.1524 75.1006 16.1524C75.7325 16.1524 76.29 16.6356 76.29 17.3418C76.29 17.4905 76.29 17.6763 76.2157 17.8993C74.9148 21.2445 72.1643 22.9542 69.4882 23.2144C68.2617 25.2958 66.2546 26.8197 63.3926 26.8197C59.3041 26.8197 57.4829 23.5861 57.4829 20.0551C57.4829 15.7064 60.2334 10.8745 64.8422 10.8745C65.8457 10.8745 66.7006 11.0976 67.4068 11.3949C69.4882 12.1754 70.8263 14.8887 70.8263 17.7878C70.8263 18.717 70.7519 19.6462 70.5289 20.5383C71.9042 20.0551 73.205 18.94 73.9112 17.0816ZM66.1431 13.9223V13.8852C65.3254 13.8852 64.8422 14.963 64.8422 16.2639C64.8422 18.1595 65.8829 19.9064 67.5183 20.5383C67.7785 19.7206 67.89 18.7914 67.89 17.7135C67.89 15.6321 67.2581 13.9223 66.1431 13.9223ZM63.4298 24.1064C64.4705 24.1064 65.5112 23.6604 66.3289 22.7312C63.913 21.6533 62.3891 19.1259 62.3891 16.7099C62.3891 15.8922 62.5378 15.0374 62.7608 14.294C61.2741 15.5206 60.4192 17.9365 60.4192 20.0551C60.4192 22.8055 61.7201 24.1064 63.4298 24.1064Z" fill="black"/>
<path d="M58.0568 17.0813L58.0196 17.1185C58.2798 16.4123 58.7258 16.115 59.1718 16.115C59.8037 16.115 60.4355 16.6725 60.4355 17.3787C60.4355 17.5645 60.3984 17.7132 60.324 17.899C58.8745 21.43 56.7187 25.5557 53.2621 27.9716L53.1878 28.715C52.7789 33.1752 50.5117 35.9999 47.6497 35.9999C45.4939 35.9999 44.2302 34.5132 44.2302 32.7663C44.2302 29.607 47.4638 28.4548 50.4745 26.5221C50.5488 25.7415 50.586 24.8495 50.6231 23.8459C49.1364 25.4813 47.5382 26.1504 46.1258 26.1504C43.301 26.1504 40.9966 23.8459 40.9966 20.315C40.9966 14.8884 44.5647 11.3203 48.5417 11.3203H48.5789C51.2922 11.3203 54.1913 12.7698 54.1913 15.3716C54.1913 16.2265 53.8196 20.8725 53.5223 24.4778C55.5293 22.5822 57.2019 19.4973 58.0568 17.0813ZM46.5346 23.4743C47.9099 23.4743 49.7683 22.6194 50.9205 18.4194C51.1063 17.4902 51.2178 16.6725 51.1807 15.7061C50.9577 14.7026 50.1028 14.1079 48.8762 14.1079C46.3488 14.1079 43.9329 16.5238 43.9329 20.2035C43.9329 22.4336 44.9736 23.4743 46.5346 23.4743ZM47.947 33.2867H47.9842C48.7647 33.2867 49.6196 32.7663 50.1771 29.4212C48.5417 30.3875 47.0178 31.3539 47.0178 32.5061C47.0178 32.9893 47.3895 33.2867 47.947 33.2867Z" fill="black"/>
<path d="M41.6488 17.0816L41.6117 17.1188C41.8718 16.4126 42.3922 16.1524 42.8382 16.1524C43.4701 16.1524 44.0276 16.6356 44.0276 17.3418C44.0276 17.4905 44.0276 17.6763 43.9533 17.8993C42.6524 21.2445 39.9019 22.9542 37.2258 23.2144C35.9993 25.2958 33.9922 26.8197 31.1302 26.8197C27.0417 26.8197 25.2205 23.5861 25.2205 20.0551C25.2205 15.7064 27.9709 10.8745 32.5798 10.8745C33.5833 10.8745 34.4382 11.0976 35.1444 11.3949C37.2258 12.1754 38.5639 14.8887 38.5639 17.7878C38.5639 18.717 38.4895 19.6462 38.2665 20.5383C39.6418 20.0551 40.9426 18.94 41.6488 17.0816ZM33.8807 13.9223V13.8852C33.063 13.8852 32.5798 14.963 32.5798 16.2639C32.5798 18.1595 33.6205 19.9064 35.2559 20.5383C35.5161 19.7206 35.6276 18.7914 35.6276 17.7135C35.6276 15.6321 34.9957 13.9223 33.8807 13.9223ZM31.1674 24.1064C32.2081 24.1064 33.2488 23.6604 34.0665 22.7312C31.6506 21.6533 30.1267 19.1259 30.1267 16.7099C30.1267 15.8922 30.2754 15.0374 30.4984 14.294C29.0117 15.5206 28.1568 17.9365 28.1568 20.0551C28.1568 22.8055 29.4577 24.1064 31.1674 24.1064Z" fill="black"/>
<path d="M27.1096 15.9085C26.5892 15.9085 26.1432 16.1687 25.8458 16.8749C24.8795 19.328 22.8723 23.4909 20.828 23.4909C19.5408 23.4909 18.5447 23.1998 17.5381 22.9056C16.5101 22.6052 15.4713 22.3015 14.1004 22.3015C13.6172 22.3015 12.9482 22.3759 12.3163 22.4874C14.2199 19.8916 14.9311 16.7479 15.6201 10.8056C14.3227 10.723 13.2673 10.4833 12.498 10.2412C11.6763 17.7777 10.7433 20.6513 7.3357 23.4909C6.88967 23.8626 6.66666 24.383 6.66666 24.9034C6.66666 25.7211 7.37288 26.4273 8.26493 26.4273C8.56228 26.4273 8.89679 26.3158 9.23131 26.1671C11.1269 25.3122 12.2792 25.0892 13.6916 25.0892C14.5898 25.0892 15.6645 25.3461 16.8152 25.621C18.1406 25.9378 19.5667 26.2786 20.9396 26.2786C23.9502 26.2786 25.9202 23.3423 28.1131 17.6554C28.2247 17.4696 28.2618 17.2466 28.2618 17.0607C28.2618 16.3545 27.7043 15.9085 27.1096 15.9085Z" fill="black"/>
<path fill-rule="evenodd" clip-rule="evenodd" d="M12.6866 8.70287C13.3596 8.93784 14.4105 9.2114 15.7729 9.29233L15.9959 9.29222C20.196 9.29222 22.9465 6.6904 22.9465 3.56821C22.9465 1.56109 21.3854 0 19.1924 0C16.2561 0 14.2118 2.00712 13.1711 5.98419C11.8702 5.27798 10.9781 4.01424 10.5321 2.41598C10.3091 1.63543 9.82588 1.15223 9.15683 1.15223C8.33912 1.15223 7.81875 1.78411 7.81875 2.63899C7.81875 5.16648 9.78871 7.58245 12.6879 8.69752L12.6866 8.70287ZM16.2189 6.57889C16.7764 4.01424 17.6685 2.78767 18.8579 2.78767C19.4898 2.78767 19.8986 3.15936 19.8986 3.8284C19.8986 5.05497 18.5977 6.50455 16.2189 6.57889Z" fill="black"/>
</g>
<defs>
<clipPath id="clip0_15_237">
<rect width="70" height="36" fill="white" transform="translate(6.66666)"/>
</clipPath>
</defs>
</svg>
