<svg width="36" height="36" viewBox="0 0 36 36" fill="none" xmlns="http://www.w3.org/2000/svg">
<path d="M28.5 20.379V15C28.5 10.1745 25.2225 6.1095 20.7825 4.887C20.343 3.78 19.269 3 18 3C16.731 3 15.657 3.78 15.2175 4.887C10.7775 6.111 7.5 10.1745 7.5 15V20.379L4.9395 22.9395C4.79994 23.0786 4.68926 23.2438 4.61383 23.4259C4.5384 23.6079 4.49972 23.803 4.5 24V27C4.5 27.3978 4.65804 27.7794 4.93934 28.0607C5.22065 28.342 5.60218 28.5 6 28.5H30C30.3978 28.5 30.7794 28.342 31.0607 28.0607C31.342 27.7794 31.5 27.3978 31.5 27V24C31.5003 23.803 31.4616 23.6079 31.3862 23.4259C31.3107 23.2438 31.2001 23.0786 31.0605 22.9395L28.5 20.379ZM28.5 25.5H7.5V24.621L10.0605 22.0605C10.2001 21.9214 10.3107 21.7562 10.3862 21.5741C10.4616 21.3921 10.5003 21.197 10.5 21V15C10.5 10.8645 13.8645 7.5 18 7.5C22.1355 7.5 25.5 10.8645 25.5 15V21C25.5 21.399 25.6575 21.78 25.9395 22.0605L28.5 24.621V25.5ZM18 33C18.929 33.0012 19.8352 32.7129 20.5927 32.1752C21.3503 31.6376 21.9215 30.8773 22.227 30H13.773C14.0785 30.8773 14.6497 31.6376 15.4073 32.1752C16.1648 32.7129 17.0711 33.0012 18 33Z" fill="black"/>
</svg>
