<svg width="23" height="23" viewBox="0 0 23 23" fill="none" xmlns="http://www.w3.org/2000/svg">
<path d="M11.7501 13.1117C13.7416 13.1117 15.3612 11.4921 15.3612 9.50054C15.3612 7.50901 13.7416 5.88943 11.7501 5.88943C9.75858 5.88943 8.139 7.50901 8.139 9.50054C8.139 11.4921 9.75858 13.1117 11.7501 13.1117ZM11.7501 7.69499C12.7459 7.69499 13.5557 8.50478 13.5557 9.50054C13.5557 10.4963 12.7459 11.3061 11.7501 11.3061C10.7543 11.3061 9.94455 10.4963 9.94455 9.50054C9.94455 8.50478 10.7543 7.69499 11.7501 7.69499Z" fill="black"/>
<path d="M11.2265 20.166C11.3793 20.2751 11.5624 20.3337 11.7501 20.3337C11.9379 20.3337 12.121 20.2751 12.2737 20.166C12.5482 19.9719 18.9985 15.3144 18.9724 9.50054C18.9724 5.51839 15.7323 2.27832 11.7501 2.27832C7.76798 2.27832 4.52791 5.51839 4.52791 9.49603C4.50173 15.3144 10.9521 19.9719 11.2265 20.166ZM11.7501 4.08388C14.7374 4.08388 17.1668 6.51325 17.1668 9.50506C17.1858 13.5116 13.2054 17.1092 11.7501 18.2891C10.2958 17.1083 6.31451 13.5098 6.33347 9.50054C6.33347 6.51325 8.76284 4.08388 11.7501 4.08388Z" fill="black"/>
</svg>
