<svg width="34" height="33" viewBox="0 0 34 33" fill="none" xmlns="http://www.w3.org/2000/svg">
<path d="M26.4236 18.745V13.889C26.4236 9.53264 23.4648 5.86285 19.4564 4.75921C19.0597 3.75983 18.0901 3.05566 16.9445 3.05566C15.7988 3.05566 14.8293 3.75983 14.4325 4.75921C10.4241 5.86421 7.46529 9.53264 7.46529 13.889V18.745L5.15373 21.0566C5.02774 21.1821 4.92781 21.3314 4.85972 21.4957C4.79162 21.66 4.7567 21.8361 4.75696 22.014V24.7223C4.75696 25.0815 4.89963 25.4259 5.15359 25.6799C5.40754 25.9338 5.75198 26.0765 6.11113 26.0765H27.7778C28.1369 26.0765 28.4814 25.9338 28.7353 25.6799C28.9893 25.4259 29.132 25.0815 29.132 24.7223V22.014C29.1322 21.8361 29.0973 21.66 29.0292 21.4957C28.9611 21.3314 28.8612 21.1821 28.7352 21.0566L26.4236 18.745ZM26.4236 23.3682H7.46529V22.5746L9.77686 20.2631C9.90285 20.1375 10.0028 19.9883 10.0709 19.824C10.139 19.6597 10.1739 19.4835 10.1736 19.3057V13.889C10.1736 10.1556 13.211 7.11816 16.9445 7.11816C20.6779 7.11816 23.7153 10.1556 23.7153 13.889V19.3057C23.7153 19.6659 23.8575 20.0098 24.1121 20.2631L26.4236 22.5746V23.3682ZM16.9445 30.139C17.7831 30.1401 18.6012 29.8798 19.2851 29.3944C19.969 28.909 20.4847 28.2227 20.7605 27.4307H13.1284C13.4042 28.2227 13.9199 28.909 14.6038 29.3944C15.2877 29.8798 16.1058 30.1401 16.9445 30.139Z" fill="black"/>
</svg>
