<svg width="23" height="23" viewBox="0 0 23 23" fill="none" xmlns="http://www.w3.org/2000/svg">
<path d="M9.86114 16.7228C11.4635 16.7224 13.0198 16.186 14.282 15.1989L18.2507 19.1675L19.5272 17.891L15.5586 13.9223C16.5462 12.66 17.083 11.1034 17.0834 9.50054C17.0834 5.51839 13.8433 2.27832 9.86114 2.27832C5.87899 2.27832 2.63892 5.51839 2.63892 9.50054C2.63892 13.4827 5.87899 16.7228 9.86114 16.7228ZM9.86114 4.08388C12.8484 4.08388 15.2778 6.51325 15.2778 9.50054C15.2778 12.4878 12.8484 14.9172 9.86114 14.9172C6.87385 14.9172 4.44447 12.4878 4.44447 9.50054C4.44447 6.51325 6.87385 4.08388 9.86114 4.08388Z" fill="black"/>
</svg>
