<svg width="34" height="33" viewBox="0 0 34 33" fill="none" xmlns="http://www.w3.org/2000/svg">
<path d="M26.4236 18.6479V13.7918C26.4236 9.43548 23.4648 5.76568 19.4564 4.66204C19.0597 3.66266 18.0901 2.9585 16.9445 2.9585C15.7988 2.9585 14.8293 3.66266 14.4325 4.66204C10.4241 5.76704 7.46529 9.43548 7.46529 13.7918V18.6479L5.15373 20.9594C5.02774 21.085 4.92781 21.2342 4.85972 21.3985C4.79162 21.5628 4.7567 21.739 4.75696 21.9168V24.6252C4.75696 24.9843 4.89963 25.3288 5.15359 25.5827C5.40754 25.8367 5.75198 25.9793 6.11113 25.9793H27.7778C28.1369 25.9793 28.4814 25.8367 28.7353 25.5827C28.9893 25.3288 29.132 24.9843 29.132 24.6252V21.9168C29.1322 21.739 29.0973 21.5628 29.0292 21.3985C28.9611 21.2342 28.8612 21.085 28.7352 20.9594L26.4236 18.6479ZM26.4236 23.271H7.46529V22.4775L9.77686 20.1659C9.90285 20.0404 10.0028 19.8911 10.0709 19.7268C10.139 19.5625 10.1739 19.3864 10.1736 19.2085V13.7918C10.1736 10.0584 13.211 7.021 16.9445 7.021C20.6779 7.021 23.7153 10.0584 23.7153 13.7918V19.2085C23.7153 19.5687 23.8575 19.9127 24.1121 20.1659L26.4236 22.4775V23.271ZM16.9445 30.0418C17.7831 30.0429 18.6012 29.7826 19.2851 29.2973C19.969 28.8119 20.4847 28.1255 20.7605 27.3335H13.1284C13.4042 28.1255 13.9199 28.8119 14.6038 29.2973C15.2877 29.7826 16.1058 30.0429 16.9445 30.0418Z" fill="black"/>
</svg>
