<svg width="17" height="18" viewBox="0 0 17 18" fill="none" xmlns="http://www.w3.org/2000/svg">
<path d="M3.73611 14.0383L7.72007 14.0247L16.4156 5.41222C16.7569 5.07097 16.9447 4.61778 16.9447 4.1357C16.9447 3.65361 16.7569 3.20042 16.4156 2.85917L14.9838 1.42736C14.3013 0.744863 13.1106 0.748474 12.4335 1.42465L3.73611 10.039V14.0383ZM13.7073 2.70389L15.1418 4.13299L13.7001 5.56118L12.2683 4.13028L13.7073 2.70389ZM5.54167 10.7919L10.9854 5.39959L12.4172 6.83139L6.97437 12.2219L5.54167 12.2264V10.7919Z" fill="black"/>
<path d="M1.93056 17.6376H14.5694C15.5652 17.6376 16.375 16.8278 16.375 15.8321V8.00679L14.5694 9.81234V15.8321H4.78153C4.75806 15.8321 4.73368 15.8411 4.71021 15.8411C4.68042 15.8411 4.65062 15.833 4.61993 15.8321H1.93056V3.19317H8.11187L9.91743 1.38762H1.93056C0.934792 1.38762 0.125 2.19741 0.125 3.19317V15.8321C0.125 16.8278 0.934792 17.6376 1.93056 17.6376Z" fill="black"/>
</svg>
