<svg width="17" height="16" viewBox="0 0 17 16" fill="none" xmlns="http://www.w3.org/2000/svg">
<path d="M14.7934 7.36665L8.6667 13.4933C7.91613 14.2439 6.89815 14.6655 5.8367 14.6655C4.77524 14.6655 3.75726 14.2439 3.0067 13.4933C2.25613 12.7428 1.83447 11.7248 1.83447 10.6633C1.83447 9.60186 2.25613 8.58388 3.0067 7.83332L9.13336 1.70665C9.63374 1.20628 10.3124 0.925171 11.02 0.925171C11.7277 0.925171 12.4063 1.20628 12.9067 1.70665C13.4071 2.20703 13.6882 2.88568 13.6882 3.59332C13.6882 4.30096 13.4071 4.97961 12.9067 5.47999L6.77336 11.6067C6.52318 11.8568 6.18385 11.9974 5.83003 11.9974C5.47621 11.9974 5.13688 11.8568 4.8867 11.6067C4.63651 11.3565 4.49596 11.0171 4.49596 10.6633C4.49596 10.3095 4.63651 9.97017 4.8867 9.71999L10.5467 4.06665" stroke="#F5F5F5" stroke-width="1.6" stroke-linecap="round" stroke-linejoin="round"/>
</svg>
